# xmcd CD database file
#
# Track frame offsets:
#	150
#	43683
#	64374
#	88969
#	117721
#	147166
#
# Disc length: 2304 seconds
#
# Revision: 1
# Processed by: cddbd v1.5.2PL0 Copyright (c) Steve Scherf et al.
# Submitted via: CDex 1.70beta2
#
DISCID=5d08fe06
DTITLE=JOHNNY WINTER - Remembrance Vol. 1.(Live Bootleg Special Edition)
DYEAR=2015
DGENRE=Blues Rock
TTITLE0=Hideaway
TTITLE1=Ain't That Just Like A Woman
TTITLE2=Johnny B. Goode
TTITLE3=Serious As A Heart Attack
TTITLE4=Stranger
TTITLE5=Jumpin' Jack Flash
EXTD=YEAR: 2015
EXTT0=
EXTT1=
EXTT2=
EXTT3=
EXTT4=
EXTT5=
PLAYORDER=
